<svg xmlns="http://www.w3.org/2000/svg" width="34.603" height="35.839" viewBox="0 0 34.603 35.839"><path d="M136.754,96.624a3.038,3.038,0,1,1,3.034-3.037A3.04,3.04,0,0,1,136.754,96.624Zm0-4.894a1.857,1.857,0,1,0,1.855,1.857A1.857,1.857,0,0,0,136.754,91.73Zm0,0" transform="translate(-127.467 -69.463)" fill="#010101"/><path d="M157.923,96.624a3.038,3.038,0,1,1,3.037-3.037A3.038,3.038,0,0,1,157.923,96.624Zm0-4.894a1.858,1.858,0,1,0,1.313.544A1.856,1.856,0,0,0,157.923,91.73Zm0,0" transform="translate(-132.611 -69.463)" fill="#010101"/><path d="M159.47,66.675h-2.857V64.993a2.3,2.3,0,0,0-2.3-2.3H131.2a2.3,2.3,0,0,0-2.3,2.3v1.683h-2.857a.591.591,0,0,0-.588.591v6.015a.59.59,0,1,0,1.18,0V67.858H128.9V91.012a2.307,2.307,0,0,0,2.3,2.3h.163V96.53a2.006,2.006,0,0,0,2,2h2.753a2,2,0,0,0,2-2V93.3h9.27V96.53a2,2,0,0,0,2,2h2.756a2,2,0,0,0,2-2V93.3h.166a2.3,2.3,0,0,0,2.3-2.3V67.852h2.265v5.426a.592.592,0,0,0,1.183,0V67.267a.591.591,0,0,0-.594-.591Zm-29.388-1.683a1.117,1.117,0,0,1,1.115-1.118H154.31a1.117,1.117,0,0,1,1.118,1.118v1.683H130.083ZM136.94,96.53a.822.822,0,0,1-.822.822h-2.75a.827.827,0,0,1-.825-.822V93.3h4.4Zm16.024,0a.82.82,0,0,1-.822.822h-2.756a.823.823,0,0,1-.822-.822V93.3h4.394Zm1.345-4.407H131.2A1.119,1.119,0,0,1,130.086,91V81.062h25.348v9.951a1.117,1.117,0,0,1-1.118,1.117Zm1.118-12.242H130.083V67.852h25.345Zm0,0" transform="translate(-125.461 -62.695)" fill="#010101"/><path d="M149.531,94.96h-4.143a.591.591,0,0,1,0-1.183h4.146a.591.591,0,0,1,0,1.183Zm0,0" transform="translate(-130.16 -70.248)" fill="#010101"/></svg>