<svg xmlns="http://www.w3.org/2000/svg" width="25.069" height="25.069" viewBox="0 0 25.069 25.069">
  <path id="Caminho_5" data-name="Caminho 5" d="M550.321,288.135h-2.07V286.96a1.639,1.639,0,0,0-1.665-1.608H529.841a1.639,1.639,0,0,0-1.665,1.608v1.175h-2.07a.42.42,0,0,0-.427.414v4.207a.428.428,0,0,0,.855,0v-3.794h1.642v16.19a1.64,1.64,0,0,0,1.666,1.608h.118v2.256a1.429,1.429,0,0,0,1.452,1.4H533.4a1.429,1.429,0,0,0,1.452-1.4v-2.256h6.716v2.256a1.429,1.429,0,0,0,1.45,1.4h1.993a1.429,1.429,0,0,0,1.45-1.4v-2.256h.12a1.639,1.639,0,0,0,1.665-1.608V288.961h1.642v3.8a.428.428,0,0,0,.855,0v-4.208A.42.42,0,0,0,550.321,288.135Zm-21.29-1.175a.8.8,0,0,1,.81-.783h16.745a.8.8,0,0,1,.81.783v1.175H529.031ZM534,309.017a.586.586,0,0,1-.6.575h-1.992a.587.587,0,0,1-.6-.575v-2.256H534v2.256Zm11.611,0a.586.586,0,0,1-.6.575h-1.993a.586.586,0,0,1-.6-.575v-2.256h3.184Zm.975-3.082H529.841a.8.8,0,0,1-.81-.783V298.2H547.4v6.953A.8.8,0,0,1,546.586,305.935Zm.81-8.561H529.031v-8.413H547.4Z" transform="translate(-525.679 -285.351)"/>
</svg>
