<svg xmlns="http://www.w3.org/2000/svg" width="29" height="37.079" viewBox="0 0 29 37.079"><g transform="translate(-93.535 463.926)"><path d="M106.17-463.826A15.075,15.075,0,0,0,100.9-462.1a14.518,14.518,0,0,0-7.2,10.353,22.177,22.177,0,0,0-.045,4.864,16.043,16.043,0,0,0,2.419,6.212c.616.928,10.915,13.459,11.237,13.673a1.817,1.817,0,0,0,1.464,0c.312-.205,10.621-12.745,11.237-13.673a16.042,16.042,0,0,0,2.419-6.212,22.348,22.348,0,0,0-.045-4.882,14.8,14.8,0,0,0-4.962-8.782A14.709,14.709,0,0,0,106.17-463.826Z" transform="translate(0 0)" fill="#ffc55a"/><path d="M27.4-511.886c-2.094.138-3.453.483-3.972,1.008a4.467,4.467,0,0,0-.621,2.241c-.051.447-.054.459-.129.477a.92.92,0,0,0-.537.411,3.371,3.371,0,0,0-.06,1.044c-.009.921-.006.957.057,1.1a.9.9,0,0,0,.366.4l.066.03,0,2.331c0,1.866.012,2.5.054,3.156.054.885.072.987.174,1.14.141.207.189.222.663.225h.426l.015.6c.015.585.018.6.1.738a1.014,1.014,0,0,0,1.164.36.753.753,0,0,0,.375-.222.677.677,0,0,0,.192-.276,4.7,4.7,0,0,0,.033-.669v-.546h6.923l.009.594.012.6.09.147a1.044,1.044,0,0,0,1.293.33.786.786,0,0,0,.411-.363c.06-.108.066-.177.075-.714l.012-.6.2.021a.839.839,0,0,0,.657-.15l.108-.1.024-1.512c.012-.831.018-2.316.012-3.3l-.012-1.791.081-.03a.815.815,0,0,0,.387-.4c.063-.144.066-.18.057-1.1-.009-1.056-.006-1.035-.222-1.242a.849.849,0,0,0-.4-.216c-.075-.015-.078-.027-.132-.459a4.632,4.632,0,0,0-.591-2.112,2.741,2.741,0,0,0-1.206-.639A20.085,20.085,0,0,0,27.4-511.886Zm5.144,1.9v.54H25.522v-1.08h7.019Zm1.23,3.6v2.49H24.292v-4.979h9.479Zm-7.736,4.943a1,1,0,0,1,.48.474.742.742,0,0,1,.1.426.985.985,0,0,1-1.7.681,1,1,0,0,1-.1-1.236,1.217,1.217,0,0,1,.531-.4A1.288,1.288,0,0,1,26.035-501.438Zm6.869,0a1,1,0,0,1,.48.474.75.75,0,0,1,.1.432.75.75,0,0,1-.1.432.989.989,0,0,1-1.821-.108,1.079,1.079,0,0,1,.15-.933,1.3,1.3,0,0,1,.5-.348A1.291,1.291,0,0,1,32.9-501.438Z" transform="translate(78.943 55.321)" fill="#2bb647"/></g></svg>